%TF.GenerationSoftware,KiCad,Pcbnew,(5.99.0-7040-g8c08b861ab)*%
%TF.CreationDate,2021-03-18T10:44:17+08:00*%
%TF.ProjectId,PicoIndustrial,5069636f-496e-4647-9573-747269616c2e,rev?*%
%TF.SameCoordinates,Original*%
%TF.FileFunction,Soldermask,Top*%
%TF.FilePolarity,Negative*%
%FSLAX46Y46*%
G04 Gerber Fmt 4.6, Leading zero omitted, Abs format (unit mm)*
G04 Created by KiCad (PCBNEW (5.99.0-7040-g8c08b861ab)) date 2021-03-18 10:44:17*
%MOMM*%
%LPD*%
G01*
G04 APERTURE LIST*
G04 Aperture macros list*
%AMRoundRect*
0 Rectangle with rounded corners*
0 $1 Rounding radius*
0 $2 $3 $4 $5 $6 $7 $8 $9 X,Y pos of 4 corners*
0 Add a 4 corners polygon primitive as box body*
4,1,4,$2,$3,$4,$5,$6,$7,$8,$9,$2,$3,0*
0 Add four circle primitives for the rounded corners*
1,1,$1+$1,$2,$3,0*
1,1,$1+$1,$4,$5,0*
1,1,$1+$1,$6,$7,0*
1,1,$1+$1,$8,$9,0*
0 Add four rect primitives between the rounded corners*
20,1,$1+$1,$2,$3,$4,$5,0*
20,1,$1+$1,$4,$5,$6,$7,0*
20,1,$1+$1,$6,$7,$8,$9,0*
20,1,$1+$1,$8,$9,$2,$3,0*%
G04 Aperture macros list end*
%ADD10RoundRect,0.218750X0.256250X-0.218750X0.256250X0.218750X-0.256250X0.218750X-0.256250X-0.218750X0*%
%ADD11RoundRect,0.218750X-0.256250X0.218750X-0.256250X-0.218750X0.256250X-0.218750X0.256250X0.218750X0*%
%ADD12R,0.640000X2.000000*%
%ADD13RoundRect,0.218750X0.218750X0.256250X-0.218750X0.256250X-0.218750X-0.256250X0.218750X-0.256250X0*%
%ADD14C,1.400000*%
%ADD15C,1.650000*%
%ADD16R,2.500000X2.300000*%
%ADD17R,1.528000X0.650000*%
%ADD18R,2.100000X2.100000*%
%ADD19C,2.100000*%
%ADD20RoundRect,0.250000X-1.000000X1.500000X-1.000000X-1.500000X1.000000X-1.500000X1.000000X1.500000X0*%
%ADD21R,0.840000X0.840000*%
%ADD22C,0.840000*%
%ADD23O,1.850000X0.850000*%
%ADD24RoundRect,0.218750X-0.218750X-0.256250X0.218750X-0.256250X0.218750X0.256250X-0.218750X0.256250X0*%
%ADD25RoundRect,0.250000X0.375000X0.625000X-0.375000X0.625000X-0.375000X-0.625000X0.375000X-0.625000X0*%
%ADD26RoundRect,0.250000X-0.625000X0.375000X-0.625000X-0.375000X0.625000X-0.375000X0.625000X0.375000X0*%
%ADD27R,0.900000X1.200000*%
%ADD28RoundRect,0.250000X-0.375000X-0.625000X0.375000X-0.625000X0.375000X0.625000X-0.375000X0.625000X0*%
%ADD29RoundRect,0.250000X0.625000X-0.375000X0.625000X0.375000X-0.625000X0.375000X-0.625000X-0.375000X0*%
%ADD30R,2.500000X1.800000*%
%ADD31R,5.400000X2.900000*%
%ADD32C,6.400000*%
%ADD33C,0.800000*%
%ADD34R,1.600000X3.200000*%
%ADD35O,1.700000X1.700000*%
%ADD36R,1.700000X1.700000*%
%ADD37R,3.200000X1.600000*%
%ADD38R,1.500000X1.500000*%
%ADD39R,1.550000X0.600000*%
%ADD40R,2.600000X3.100000*%
%ADD41RoundRect,0.250000X0.312500X1.450000X-0.312500X1.450000X-0.312500X-1.450000X0.312500X-1.450000X0*%
%ADD42RoundRect,0.250000X-0.312500X-1.450000X0.312500X-1.450000X0.312500X1.450000X-0.312500X1.450000X0*%
%ADD43RoundRect,0.070000X0.300000X1.000000X-0.300000X1.000000X-0.300000X-1.000000X0.300000X-1.000000X0*%
G04 APERTURE END LIST*
D10*
%TO.C,D8*%
X160000000Y-84287500D03*
X160000000Y-82712500D03*
%TD*%
D11*
%TO.C,C7*%
X92500000Y-127462500D03*
X92500000Y-129037500D03*
%TD*%
D12*
%TO.C,U2*%
X126270000Y-73850000D03*
X123730000Y-73850000D03*
X123730000Y-80150000D03*
X126270000Y-80150000D03*
%TD*%
D10*
%TO.C,R21*%
X144000000Y-84287500D03*
X144000000Y-82712500D03*
%TD*%
%TO.C,D10*%
X178000000Y-84287500D03*
X178000000Y-82712500D03*
%TD*%
D13*
%TO.C,R2*%
X89287500Y-117750000D03*
X87712500Y-117750000D03*
%TD*%
D10*
%TO.C,R27*%
X189000000Y-105624721D03*
X189000000Y-104049721D03*
%TD*%
%TO.C,R25*%
X180000000Y-84287500D03*
X180000000Y-82712500D03*
%TD*%
D14*
%TO.C,JP5-2*%
X61790000Y-86500000D03*
X59250000Y-86500000D03*
%TD*%
D10*
%TO.C,R26*%
X189000000Y-84287500D03*
X189000000Y-82712500D03*
%TD*%
D13*
%TO.C,R1*%
X92787500Y-117750000D03*
X91212500Y-117750000D03*
%TD*%
D15*
%TO.C,K5*%
X154500000Y-110000000D03*
X149800000Y-110000000D03*
X149800000Y-121500000D03*
X149800000Y-128500000D03*
%TD*%
D10*
%TO.C,R34*%
X126000000Y-105624721D03*
X126000000Y-104049721D03*
%TD*%
D14*
%TO.C,JP2-1*%
X70750000Y-71710000D03*
X73290000Y-71710000D03*
%TD*%
%TO.C,JP3-2*%
X84750000Y-74210000D03*
X87290000Y-74210000D03*
%TD*%
D16*
%TO.C,D2*%
X65850000Y-120250000D03*
X70150000Y-120250000D03*
%TD*%
D12*
%TO.C,U5*%
X153270000Y-73850000D03*
X150730000Y-73850000D03*
X150730000Y-80150000D03*
X153270000Y-80150000D03*
%TD*%
D17*
%TO.C,IC1*%
X86789000Y-77805000D03*
X86789000Y-79075000D03*
X86789000Y-80345000D03*
X86789000Y-81615000D03*
X92211000Y-81615000D03*
X92211000Y-80345000D03*
X92211000Y-79075000D03*
X92211000Y-77805000D03*
%TD*%
D10*
%TO.C,D12*%
X187000000Y-105624721D03*
X187000000Y-104049721D03*
%TD*%
D11*
%TO.C,R47*%
X103000000Y-77422500D03*
X103000000Y-78997500D03*
%TD*%
D18*
%TO.C,J2*%
X143000000Y-139000000D03*
D19*
X146810000Y-139000000D03*
X150620000Y-139000000D03*
X154430000Y-139000000D03*
X158240000Y-139000000D03*
X162050000Y-139000000D03*
X165860000Y-139000000D03*
X169670000Y-139000000D03*
X173480000Y-139000000D03*
X177290000Y-139000000D03*
%TD*%
D20*
%TO.C,C8*%
X112500000Y-122000000D03*
X112500000Y-128500000D03*
%TD*%
D21*
%TO.C,J6*%
X60200000Y-102800000D03*
D22*
X61200000Y-102150000D03*
X60200000Y-101500000D03*
X61200000Y-100850000D03*
X60200000Y-100200000D03*
D23*
X60420000Y-97925000D03*
X60420000Y-105075000D03*
%TD*%
D11*
%TO.C,R37*%
X64400000Y-70922500D03*
X64400000Y-72497500D03*
%TD*%
D24*
%TO.C,C14*%
X151212500Y-71500000D03*
X152787500Y-71500000D03*
%TD*%
D11*
%TO.C,R46*%
X82250000Y-77212500D03*
X82250000Y-78787500D03*
%TD*%
D25*
%TO.C,C25*%
X92650000Y-74210000D03*
X89850000Y-74210000D03*
%TD*%
D26*
%TO.C,C3*%
X78000000Y-124850000D03*
X78000000Y-127650000D03*
%TD*%
D10*
%TO.C,R52*%
X98500000Y-84497500D03*
X98500000Y-82922500D03*
%TD*%
%TO.C,R29*%
X171000000Y-105624721D03*
X171000000Y-104049721D03*
%TD*%
D27*
%TO.C,D27*%
X119150000Y-76710000D03*
X115850000Y-76710000D03*
%TD*%
D10*
%TO.C,D6*%
X142000000Y-84287500D03*
X142000000Y-82712500D03*
%TD*%
D11*
%TO.C,R44*%
X84250000Y-77212500D03*
X84250000Y-78787500D03*
%TD*%
D14*
%TO.C,JP4-2*%
X105500000Y-74210000D03*
X108040000Y-74210000D03*
%TD*%
D15*
%TO.C,K4*%
X163500000Y-110000000D03*
X158800000Y-110000000D03*
X158800000Y-121500000D03*
X158800000Y-128500000D03*
%TD*%
D10*
%TO.C,R43*%
X101250000Y-82247500D03*
X101250000Y-80672500D03*
%TD*%
D15*
%TO.C,K1*%
X190500000Y-110000000D03*
X185800000Y-110000000D03*
X185800000Y-121500000D03*
X185800000Y-128500000D03*
%TD*%
D10*
%TO.C,R42*%
X80250000Y-82287500D03*
X80250000Y-80712500D03*
%TD*%
D14*
%TO.C,JP5-1*%
X61750000Y-84000000D03*
X59210000Y-84000000D03*
%TD*%
D28*
%TO.C,R36*%
X70500000Y-77210000D03*
X73300000Y-77210000D03*
%TD*%
D11*
%TO.C,C21*%
X68400000Y-70922500D03*
X68400000Y-72497500D03*
%TD*%
D10*
%TO.C,R28*%
X180000000Y-105624721D03*
X180000000Y-104049721D03*
%TD*%
D12*
%TO.C,U3*%
X135270000Y-73850000D03*
X132730000Y-73850000D03*
X132730000Y-80150000D03*
X135270000Y-80150000D03*
%TD*%
D18*
%TO.C,J4*%
X111290000Y-61000000D03*
D19*
X107480000Y-61000000D03*
X103670000Y-61000000D03*
X99860000Y-61000000D03*
X96050000Y-61000000D03*
X92240000Y-61000000D03*
X88430000Y-61000000D03*
X84620000Y-61000000D03*
X80810000Y-61000000D03*
X77000000Y-61000000D03*
%TD*%
D13*
%TO.C,R9*%
X179787500Y-68000000D03*
X178212500Y-68000000D03*
%TD*%
D29*
%TO.C,C29*%
X148250000Y-99150000D03*
X148250000Y-96350000D03*
%TD*%
D30*
%TO.C,D3*%
X85000000Y-128250000D03*
X89000000Y-128250000D03*
%TD*%
D10*
%TO.C,R31*%
X153000000Y-105624721D03*
X153000000Y-104049721D03*
%TD*%
D11*
%TO.C,R45*%
X104750000Y-77422500D03*
X104750000Y-78997500D03*
%TD*%
D13*
%TO.C,R7*%
X161787500Y-68000000D03*
X160212500Y-68000000D03*
%TD*%
D31*
%TO.C,L1*%
X101000000Y-131200000D03*
X101000000Y-121300000D03*
%TD*%
D13*
%TO.C,R54*%
X96287500Y-79210000D03*
X94712500Y-79210000D03*
%TD*%
D29*
%TO.C,C2*%
X75500000Y-122750000D03*
X75500000Y-119950000D03*
%TD*%
D27*
%TO.C,D23*%
X79400000Y-74710000D03*
X76100000Y-74710000D03*
%TD*%
D11*
%TO.C,R49*%
X96500000Y-82922500D03*
X96500000Y-84497500D03*
%TD*%
D32*
%TO.C,H6*%
X190000000Y-140000000D03*
D33*
X192400000Y-140000000D03*
X187600000Y-140000000D03*
X191697056Y-138302944D03*
X190000000Y-137600000D03*
X188302944Y-141697056D03*
X191697056Y-141697056D03*
X188302944Y-138302944D03*
X190000000Y-142400000D03*
%TD*%
D28*
%TO.C,C10*%
X112600000Y-115500000D03*
X115400000Y-115500000D03*
%TD*%
D10*
%TO.C,R58*%
X98500000Y-80497500D03*
X98500000Y-78922500D03*
%TD*%
%TO.C,R50*%
X116000000Y-84497500D03*
X116000000Y-82922500D03*
%TD*%
D13*
%TO.C,R3*%
X125787500Y-68000000D03*
X124212500Y-68000000D03*
%TD*%
D10*
%TO.C,D19*%
X124000000Y-105624721D03*
X124000000Y-104049721D03*
%TD*%
D13*
%TO.C,R13*%
X143787500Y-69750000D03*
X142212500Y-69750000D03*
%TD*%
D10*
%TO.C,C23*%
X84250000Y-82287500D03*
X84250000Y-80712500D03*
%TD*%
D11*
%TO.C,C22*%
X79750000Y-70922500D03*
X79750000Y-72497500D03*
%TD*%
D13*
%TO.C,R15*%
X161787500Y-69750000D03*
X160212500Y-69750000D03*
%TD*%
D26*
%TO.C,C6*%
X80500000Y-124850000D03*
X80500000Y-127650000D03*
%TD*%
D28*
%TO.C,C9*%
X112600000Y-118000000D03*
X115400000Y-118000000D03*
%TD*%
D10*
%TO.C,D14*%
X169000000Y-105624721D03*
X169000000Y-104049721D03*
%TD*%
%TO.C,D18*%
X133000000Y-105624721D03*
X133000000Y-104049721D03*
%TD*%
D12*
%TO.C,U7*%
X171270000Y-73850000D03*
X168730000Y-73850000D03*
X168730000Y-80150000D03*
X171270000Y-80150000D03*
%TD*%
D13*
%TO.C,R14*%
X152787500Y-69750000D03*
X151212500Y-69750000D03*
%TD*%
D24*
%TO.C,C13*%
X142212500Y-71500000D03*
X143787500Y-71500000D03*
%TD*%
D34*
%TO.C,J1*%
X66870000Y-111190000D03*
D35*
X66870000Y-110400000D03*
D34*
X69410000Y-111190000D03*
D35*
X69410000Y-110400000D03*
D34*
X71950000Y-111190000D03*
D36*
X71950000Y-110400000D03*
D35*
X74490000Y-110400000D03*
D34*
X74490000Y-111190000D03*
X77030000Y-111190000D03*
D35*
X77030000Y-110400000D03*
D34*
X79570000Y-111190000D03*
D35*
X79570000Y-110400000D03*
D34*
X82110000Y-111190000D03*
D35*
X82110000Y-110400000D03*
D34*
X84650000Y-111190000D03*
D36*
X84650000Y-110400000D03*
D34*
X87190000Y-111190000D03*
D35*
X87190000Y-110400000D03*
D34*
X89730000Y-111190000D03*
D35*
X89730000Y-110400000D03*
X92270000Y-110400000D03*
D34*
X92270000Y-111190000D03*
X94810000Y-111190000D03*
D35*
X94810000Y-110400000D03*
D36*
X97350000Y-110400000D03*
D34*
X97350000Y-111190000D03*
D35*
X99890000Y-110400000D03*
D34*
X99890000Y-111190000D03*
X102430000Y-111190000D03*
D35*
X102430000Y-110400000D03*
D34*
X104970000Y-111190000D03*
D35*
X104970000Y-110400000D03*
D34*
X107510000Y-111190000D03*
D35*
X107510000Y-110400000D03*
D34*
X110050000Y-111190000D03*
D36*
X110050000Y-110400000D03*
D35*
X112590000Y-110400000D03*
D34*
X112590000Y-111190000D03*
D35*
X115130000Y-110400000D03*
D34*
X115130000Y-111190000D03*
D35*
X115130000Y-92620000D03*
D34*
X115130000Y-91810000D03*
D35*
X112590000Y-92620000D03*
D34*
X112590000Y-91810000D03*
X110050000Y-91810000D03*
D36*
X110050000Y-92620000D03*
D34*
X107510000Y-91810000D03*
D35*
X107510000Y-92620000D03*
D34*
X104970000Y-91810000D03*
D35*
X104970000Y-92620000D03*
X102430000Y-92620000D03*
D34*
X102430000Y-91810000D03*
D35*
X99890000Y-92620000D03*
D34*
X99890000Y-91810000D03*
X97350000Y-91810000D03*
D36*
X97350000Y-92620000D03*
D35*
X94810000Y-92620000D03*
D34*
X94810000Y-91810000D03*
X92270000Y-91810000D03*
D35*
X92270000Y-92620000D03*
D34*
X89730000Y-91810000D03*
D35*
X89730000Y-92620000D03*
X87190000Y-92620000D03*
D34*
X87190000Y-91810000D03*
X84650000Y-91810000D03*
D36*
X84650000Y-92620000D03*
D34*
X82110000Y-91810000D03*
D35*
X82110000Y-92620000D03*
X79570000Y-92620000D03*
D34*
X79570000Y-91810000D03*
D35*
X77030000Y-92620000D03*
D34*
X77030000Y-91810000D03*
X74490000Y-91810000D03*
D35*
X74490000Y-92620000D03*
D36*
X71950000Y-92620000D03*
D34*
X71950000Y-91810000D03*
X69410000Y-91810000D03*
D35*
X69410000Y-92620000D03*
X66870000Y-92620000D03*
D34*
X66870000Y-91810000D03*
D37*
X115700000Y-104040000D03*
D35*
X114900000Y-104050000D03*
D37*
X115700000Y-101500000D03*
D36*
X114900000Y-101510000D03*
D35*
X114900000Y-98970000D03*
D37*
X115700000Y-98960000D03*
D38*
X70000000Y-101500000D03*
D35*
X66750000Y-100500000D03*
D38*
X66700000Y-100500000D03*
X66700000Y-102500000D03*
D35*
X66750000Y-102500000D03*
D38*
X73500000Y-104000000D03*
X76000000Y-104000000D03*
X78500000Y-104000000D03*
%TD*%
D15*
%TO.C,K8*%
X127500000Y-110000000D03*
X122800000Y-110000000D03*
X122800000Y-121500000D03*
X122800000Y-128500000D03*
%TD*%
D24*
%TO.C,C15*%
X160212500Y-71500000D03*
X161787500Y-71500000D03*
%TD*%
D10*
%TO.C,C28*%
X103000000Y-82247500D03*
X103000000Y-80672500D03*
%TD*%
D17*
%TO.C,IC2*%
X107539000Y-77805000D03*
X107539000Y-79075000D03*
X107539000Y-80345000D03*
X107539000Y-81615000D03*
X112961000Y-81615000D03*
X112961000Y-80345000D03*
X112961000Y-79075000D03*
X112961000Y-77805000D03*
%TD*%
D24*
%TO.C,R61*%
X59632500Y-93475000D03*
X61207500Y-93475000D03*
%TD*%
D10*
%TO.C,R30*%
X162000000Y-105624721D03*
X162000000Y-104049721D03*
%TD*%
D11*
%TO.C,R51*%
X118000000Y-82922500D03*
X118000000Y-84497500D03*
%TD*%
D15*
%TO.C,K7*%
X136500000Y-110000000D03*
X131800000Y-110000000D03*
X131800000Y-121500000D03*
X131800000Y-128500000D03*
%TD*%
D30*
%TO.C,D1*%
X70000000Y-138250000D03*
X66000000Y-138250000D03*
%TD*%
D13*
%TO.C,R8*%
X170787500Y-68000000D03*
X169212500Y-68000000D03*
%TD*%
D33*
%TO.C,H5*%
X126400000Y-140000000D03*
X125697056Y-141697056D03*
D32*
X124000000Y-140000000D03*
D33*
X124000000Y-142400000D03*
X125697056Y-138302944D03*
X121600000Y-140000000D03*
X122302944Y-141697056D03*
X124000000Y-137600000D03*
X122302944Y-138302944D03*
%TD*%
D10*
%TO.C,C27*%
X82250000Y-82287500D03*
X82250000Y-80712500D03*
%TD*%
%TO.C,D17*%
X142000000Y-105624721D03*
X142000000Y-104049721D03*
%TD*%
D18*
%TO.C,J3*%
X177290000Y-61000000D03*
D19*
X173480000Y-61000000D03*
X169670000Y-61000000D03*
X165860000Y-61000000D03*
X162050000Y-61000000D03*
X158240000Y-61000000D03*
X154430000Y-61000000D03*
X150620000Y-61000000D03*
X146810000Y-61000000D03*
X143000000Y-61000000D03*
%TD*%
D24*
%TO.C,D28*%
X59632500Y-107675000D03*
X61207500Y-107675000D03*
%TD*%
D10*
%TO.C,R40*%
X77750000Y-72497500D03*
X77750000Y-70922500D03*
%TD*%
%TO.C,R20*%
X135000000Y-84287500D03*
X135000000Y-82712500D03*
%TD*%
%TO.C,R59*%
X119500000Y-80497500D03*
X119500000Y-78922500D03*
%TD*%
D27*
%TO.C,D24*%
X94850000Y-74210000D03*
X98150000Y-74210000D03*
%TD*%
D13*
%TO.C,R5*%
X143787500Y-68000000D03*
X142212500Y-68000000D03*
%TD*%
D14*
%TO.C,JP4-1*%
X105500000Y-71710000D03*
X108040000Y-71710000D03*
%TD*%
D10*
%TO.C,R53*%
X120000000Y-84497500D03*
X120000000Y-82922500D03*
%TD*%
D39*
%TO.C,U1*%
X90700000Y-124655000D03*
X90700000Y-123385000D03*
X90700000Y-122115000D03*
X90700000Y-120845000D03*
X85300000Y-120845000D03*
X85300000Y-122115000D03*
X85300000Y-123385000D03*
X85300000Y-124655000D03*
D40*
X88000000Y-122750000D03*
%TD*%
D24*
%TO.C,C17*%
X178212500Y-71500000D03*
X179787500Y-71500000D03*
%TD*%
D41*
%TO.C,F1*%
X70137500Y-134250000D03*
X65862500Y-134250000D03*
%TD*%
D24*
%TO.C,R57*%
X115712500Y-80960000D03*
X117287500Y-80960000D03*
%TD*%
D12*
%TO.C,U4*%
X144270000Y-73850000D03*
X141730000Y-73850000D03*
X141730000Y-80150000D03*
X144270000Y-80150000D03*
%TD*%
D27*
%TO.C,D20*%
X64750000Y-77210000D03*
X68050000Y-77210000D03*
%TD*%
D33*
%TO.C,H3*%
X188302944Y-58302944D03*
X190000000Y-57600000D03*
X192400000Y-60000000D03*
X191697056Y-61697056D03*
D32*
X190000000Y-60000000D03*
D33*
X191697056Y-58302944D03*
X190000000Y-62400000D03*
X187600000Y-60000000D03*
X188302944Y-61697056D03*
%TD*%
D13*
%TO.C,C20*%
X72687500Y-79500000D03*
X71112500Y-79500000D03*
%TD*%
D27*
%TO.C,D22*%
X76100000Y-77210000D03*
X79400000Y-77210000D03*
%TD*%
D25*
%TO.C,C26*%
X113400000Y-74210000D03*
X110600000Y-74210000D03*
%TD*%
D32*
%TO.C,H4*%
X60000000Y-140000000D03*
D33*
X60000000Y-137600000D03*
X61697056Y-138302944D03*
X60000000Y-142400000D03*
X58302944Y-138302944D03*
X61697056Y-141697056D03*
X62400000Y-140000000D03*
X58302944Y-141697056D03*
X57600000Y-140000000D03*
%TD*%
D24*
%TO.C,R60*%
X59632500Y-109475000D03*
X61207500Y-109475000D03*
%TD*%
%TO.C,C11*%
X124212500Y-71500000D03*
X125787500Y-71500000D03*
%TD*%
D10*
%TO.C,R24*%
X171000000Y-84287500D03*
X171000000Y-82712500D03*
%TD*%
%TO.C,D5*%
X133000000Y-84287500D03*
X133000000Y-82712500D03*
%TD*%
D13*
%TO.C,R11*%
X125787500Y-69750000D03*
X124212500Y-69750000D03*
%TD*%
D15*
%TO.C,K3*%
X172500000Y-110000000D03*
X167800000Y-110000000D03*
X167800000Y-121500000D03*
X167800000Y-128500000D03*
%TD*%
%TO.C,K2*%
X181500000Y-110000000D03*
X176800000Y-110000000D03*
X176800000Y-121500000D03*
X176800000Y-128500000D03*
%TD*%
D42*
%TO.C,FB1*%
X65862500Y-129750000D03*
X70137500Y-129750000D03*
%TD*%
D13*
%TO.C,R56*%
X117287500Y-79210000D03*
X115712500Y-79210000D03*
%TD*%
%TO.C,R18*%
X188787500Y-69750000D03*
X187212500Y-69750000D03*
%TD*%
D18*
%TO.C,J5*%
X83000000Y-139000000D03*
D19*
X86810000Y-139000000D03*
X90620000Y-139000000D03*
%TD*%
D10*
%TO.C,R48*%
X94500000Y-84497500D03*
X94500000Y-82922500D03*
%TD*%
D33*
%TO.C,H1*%
X60000000Y-57600000D03*
X57600000Y-60000000D03*
X58302944Y-58302944D03*
X60000000Y-62400000D03*
X58302944Y-61697056D03*
D32*
X60000000Y-60000000D03*
D33*
X62400000Y-60000000D03*
X61697056Y-61697056D03*
X61697056Y-58302944D03*
%TD*%
D13*
%TO.C,R17*%
X179787500Y-69750000D03*
X178212500Y-69750000D03*
%TD*%
D28*
%TO.C,R35*%
X59250000Y-77210000D03*
X62050000Y-77210000D03*
%TD*%
D43*
%TO.C,Q1*%
X161580000Y-89300000D03*
X160310000Y-89300000D03*
X159040000Y-89300000D03*
X157770000Y-89300000D03*
X156500000Y-89300000D03*
X155230000Y-89300000D03*
X153960000Y-89300000D03*
X152690000Y-89300000D03*
X151420000Y-89300000D03*
X151420000Y-98700000D03*
X152690000Y-98700000D03*
X153960000Y-98700000D03*
X155230000Y-98700000D03*
X156500000Y-98700000D03*
X157770000Y-98700000D03*
X159040000Y-98700000D03*
X160310000Y-98700000D03*
X161580000Y-98700000D03*
%TD*%
D33*
%TO.C,H2*%
X122302944Y-61697056D03*
X125697056Y-58302944D03*
X124000000Y-57600000D03*
X124000000Y-62400000D03*
D32*
X124000000Y-60000000D03*
D33*
X125697056Y-61697056D03*
X126400000Y-60000000D03*
X122302944Y-58302944D03*
X121600000Y-60000000D03*
%TD*%
D10*
%TO.C,D7*%
X151000000Y-84287500D03*
X151000000Y-82712500D03*
%TD*%
%TO.C,D11*%
X187000000Y-84287500D03*
X187000000Y-82712500D03*
%TD*%
D24*
%TO.C,C12*%
X133212500Y-71500000D03*
X134787500Y-71500000D03*
%TD*%
D13*
%TO.C,R12*%
X134787500Y-69750000D03*
X133212500Y-69750000D03*
%TD*%
D14*
%TO.C,JP3-1*%
X84750000Y-71710000D03*
X87290000Y-71710000D03*
%TD*%
D13*
%TO.C,R6*%
X152787500Y-68000000D03*
X151212500Y-68000000D03*
%TD*%
D27*
%TO.C,D21*%
X68050000Y-74710000D03*
X64750000Y-74710000D03*
%TD*%
D11*
%TO.C,R38*%
X75750000Y-70922500D03*
X75750000Y-72497500D03*
%TD*%
D13*
%TO.C,R4*%
X134787500Y-68000000D03*
X133212500Y-68000000D03*
%TD*%
D24*
%TO.C,C16*%
X169212500Y-71500000D03*
X170787500Y-71500000D03*
%TD*%
D10*
%TO.C,R19*%
X126000000Y-84287500D03*
X126000000Y-82712500D03*
%TD*%
%TO.C,D9*%
X169000000Y-84287500D03*
X169000000Y-82712500D03*
%TD*%
%TO.C,R23*%
X162000000Y-84287500D03*
X162000000Y-82712500D03*
%TD*%
D27*
%TO.C,D25*%
X98150000Y-76710000D03*
X94850000Y-76710000D03*
%TD*%
D12*
%TO.C,U9*%
X189270000Y-73850000D03*
X186730000Y-73850000D03*
X186730000Y-80150000D03*
X189270000Y-80150000D03*
%TD*%
D13*
%TO.C,C19*%
X61337500Y-79460000D03*
X59762500Y-79460000D03*
%TD*%
D10*
%TO.C,R39*%
X66400000Y-72497500D03*
X66400000Y-70922500D03*
%TD*%
%TO.C,C24*%
X104750000Y-82247500D03*
X104750000Y-80672500D03*
%TD*%
D27*
%TO.C,D26*%
X115850000Y-74210000D03*
X119150000Y-74210000D03*
%TD*%
D15*
%TO.C,K6*%
X145500000Y-110000000D03*
X140800000Y-110000000D03*
X140800000Y-121500000D03*
X140800000Y-128500000D03*
%TD*%
D13*
%TO.C,R10*%
X188787500Y-68000000D03*
X187212500Y-68000000D03*
%TD*%
D10*
%TO.C,D16*%
X151000000Y-105624721D03*
X151000000Y-104049721D03*
%TD*%
D29*
%TO.C,C4*%
X78000000Y-122750000D03*
X78000000Y-119950000D03*
%TD*%
%TO.C,C5*%
X80500000Y-122750000D03*
X80500000Y-119950000D03*
%TD*%
D10*
%TO.C,D4*%
X124000000Y-84287500D03*
X124000000Y-82712500D03*
%TD*%
D41*
%TO.C,C1*%
X70137500Y-125250000D03*
X65862500Y-125250000D03*
%TD*%
D10*
%TO.C,D13*%
X178000000Y-105624721D03*
X178000000Y-104049721D03*
%TD*%
%TO.C,D15*%
X160000000Y-105624721D03*
X160000000Y-104049721D03*
%TD*%
D14*
%TO.C,JP1-2*%
X59250000Y-74210000D03*
X61790000Y-74210000D03*
%TD*%
D24*
%TO.C,C18*%
X187212500Y-71500000D03*
X188787500Y-71500000D03*
%TD*%
%TO.C,D29*%
X59632500Y-95275000D03*
X61207500Y-95275000D03*
%TD*%
D12*
%TO.C,U6*%
X162270000Y-73850000D03*
X159730000Y-73850000D03*
X159730000Y-80150000D03*
X162270000Y-80150000D03*
%TD*%
D10*
%TO.C,R33*%
X135000000Y-105624721D03*
X135000000Y-104049721D03*
%TD*%
%TO.C,R32*%
X144000000Y-105624721D03*
X144000000Y-104049721D03*
%TD*%
D24*
%TO.C,R55*%
X94712500Y-80960000D03*
X96287500Y-80960000D03*
%TD*%
D14*
%TO.C,JP1-1*%
X59250000Y-71710000D03*
X61790000Y-71710000D03*
%TD*%
D13*
%TO.C,R16*%
X170787500Y-69750000D03*
X169212500Y-69750000D03*
%TD*%
D10*
%TO.C,R22*%
X153000000Y-84287500D03*
X153000000Y-82712500D03*
%TD*%
D12*
%TO.C,U8*%
X180270000Y-73850000D03*
X177730000Y-73850000D03*
X177730000Y-80150000D03*
X180270000Y-80150000D03*
%TD*%
D14*
%TO.C,JP2-2*%
X70750000Y-74210000D03*
X73290000Y-74210000D03*
%TD*%
M02*
