M48
; DRILL file {KiCad (5.99.0-7040-g8c08b861ab)} date 03/18/21 10:44:34
; FORMAT={-:-/ absolute / metric / decimal}
; #@! TF.CreationDate,2021-03-18T10:44:34+08:00
; #@! TF.GenerationSoftware,Kicad,Pcbnew,(5.99.0-7040-g8c08b861ab)
; #@! TF.FileFunction,Plated,1,2,PTH
FMAT,2
METRIC
T1C0.300
T2C0.305
T3C0.350
T4C0.440
T5C0.500
T6C0.800
T7C1.020
T8C1.100
T9C1.400
T10C3.200
%
G90
G05
T1
X87.4Y-120.95
X87.4Y-122.05
X87.4Y-123.35
X87.4Y-124.55
X88.6Y-120.95
X88.6Y-122.05
X88.6Y-123.35
X88.6Y-124.55
T2
X60.0Y-112.5
X60.0Y-117.5
X60.0Y-120.0
X60.0Y-125.0
X60.0Y-130.0
X60.0Y-135.0
X61.2Y-96.4
X62.0Y-90.6
X62.5Y-82.5
X62.5Y-92.5
X62.5Y-95.0
X62.5Y-112.5
X62.5Y-117.5
X62.5Y-120.0
X62.5Y-125.0
X62.5Y-130.0
X62.5Y-135.0
X62.8Y-107.6
X65.0Y-60.0
X65.0Y-65.0
X65.0Y-67.5
X65.0Y-82.5
X65.75Y-79.5
X67.5Y-65.0
X67.5Y-82.5
X67.5Y-117.5
X68.0Y-88.5
X70.0Y-62.5
X70.0Y-67.5
X72.5Y-60.0
X72.5Y-65.0
X72.5Y-67.5
X72.5Y-85.0
X72.5Y-97.5
X72.5Y-117.5
X72.5Y-127.5
X72.5Y-132.5
X72.5Y-135.0
X75.0Y-87.5
X75.0Y-135.0
X75.0Y-137.5
X76.0Y-79.5
X77.5Y-67.5
X77.5Y-97.5
X77.5Y-117.5
X77.5Y-130.0
X77.5Y-132.5
X77.5Y-137.5
X80.0Y-67.5
X80.0Y-130.0
X80.0Y-132.5
X82.25Y-84.75
X82.5Y-67.5
X82.5Y-70.0
X82.5Y-72.5
X82.5Y-75.0
X82.5Y-97.5
X82.5Y-102.5
X82.5Y-117.5
X82.5Y-120.0
X82.5Y-130.0
X82.5Y-132.5
X85.0Y-67.5
X87.5Y-87.5
X87.5Y-97.5
X87.5Y-102.5
X91.0Y-83.0
X92.0Y-84.0
X92.5Y-97.5
X92.5Y-102.5
X92.65Y-76.16
X93.0Y-85.0
X95.0Y-87.5
X95.0Y-137.5
X95.0Y-140.0
X100.0Y-72.5
X100.0Y-75.0
X100.0Y-77.5
X100.0Y-97.5
X100.0Y-102.5
X100.0Y-137.5
X100.0Y-140.0
X101.25Y-84.75
X102.5Y-72.5
X102.5Y-75.0
X105.0Y-85.0
X105.0Y-97.5
X105.0Y-102.5
X105.0Y-137.5
X105.0Y-140.0
X107.5Y-85.0
X110.0Y-85.0
X110.0Y-97.5
X110.0Y-102.5
X110.0Y-132.5
X110.0Y-137.5
X110.0Y-140.0
X112.0Y-83.0
X112.5Y-67.5
X112.5Y-70.0
X112.5Y-132.5
X113.0Y-84.0
X113.4Y-76.11
X114.0Y-85.0
X115.0Y-132.5
X115.0Y-137.5
X115.0Y-140.0
X117.5Y-65.0
X117.5Y-67.5
X117.5Y-70.0
X117.5Y-112.5
X117.5Y-137.5
X117.5Y-140.0
X120.0Y-97.5
X120.0Y-110.0
X122.25Y-90.75
X122.5Y-95.0
X122.5Y-104.0
X126.0Y-102.5
X128.0Y-71.75
X128.0Y-81.0
X128.0Y-102.25
X130.0Y-80.0
X131.55Y-104.05
X132.5Y-97.5
X135.0Y-102.5
X137.0Y-71.75
X137.0Y-81.0
X137.5Y-97.5
X139.0Y-80.0
X140.55Y-104.05
X142.5Y-97.5
X144.0Y-102.5
X146.0Y-71.75
X146.0Y-81.0
X147.5Y-80.0
X147.5Y-90.0
X149.55Y-104.05
X150.0Y-90.0
X153.0Y-102.5
X155.0Y-71.75
X155.0Y-81.0
X157.0Y-80.0
X158.55Y-104.05
X163.75Y-104.0
X164.0Y-71.75
X164.0Y-81.0
X166.0Y-80.0
X167.5Y-90.0
X167.5Y-97.5
X167.55Y-104.05
X171.0Y-102.5
X172.5Y-90.0
X172.5Y-97.5
X173.0Y-71.75
X173.0Y-81.0
X175.0Y-80.0
X176.3Y-104.05
X177.5Y-90.0
X177.5Y-97.5
X180.0Y-102.5
X182.0Y-71.75
X182.0Y-81.0
X182.5Y-90.0
X182.5Y-97.5
X184.0Y-80.0
X185.55Y-104.05
X187.5Y-90.0
X187.5Y-97.5
X189.0Y-102.5
X191.0Y-71.75
X191.0Y-81.0
X192.5Y-80.0
X192.5Y-90.0
X192.5Y-97.5
T4
X60.2Y-100.2
X60.2Y-101.5
X60.2Y-102.8
X61.2Y-100.85
X61.2Y-102.15
T5
X121.6Y-60.0
X122.303Y-58.303
X122.303Y-61.697
X124.0Y-57.6
X124.0Y-62.4
X125.697Y-58.303
X125.697Y-61.697
X126.4Y-60.0
X121.6Y-140.0
X122.303Y-138.303
X122.303Y-141.697
X124.0Y-137.6
X124.0Y-142.4
X125.697Y-138.303
X125.697Y-141.697
X126.4Y-140.0
X187.6Y-140.0
X188.303Y-138.303
X188.303Y-141.697
X190.0Y-137.6
X190.0Y-142.4
X191.697Y-138.303
X191.697Y-141.697
X192.4Y-140.0
X57.6Y-140.0
X58.303Y-138.303
X58.303Y-141.697
X60.0Y-137.6
X60.0Y-142.4
X61.697Y-138.303
X61.697Y-141.697
X62.4Y-140.0
X187.6Y-60.0
X188.303Y-58.303
X188.303Y-61.697
X190.0Y-57.6
X190.0Y-62.4
X191.697Y-58.303
X191.697Y-61.697
X192.4Y-60.0
X57.6Y-60.0
X58.303Y-58.303
X58.303Y-61.697
X60.0Y-57.6
X60.0Y-62.4
X61.697Y-58.303
X61.697Y-61.697
X62.4Y-60.0
T6
X105.5Y-74.21
X108.04Y-74.21
X59.25Y-71.71
X61.79Y-71.71
X70.75Y-71.71
X73.29Y-71.71
X59.25Y-74.21
X61.79Y-74.21
X84.75Y-71.71
X87.29Y-71.71
X59.25Y-86.5
X61.79Y-86.5
X84.75Y-74.21
X87.29Y-74.21
X70.75Y-74.21
X73.29Y-74.21
X59.21Y-84.0
X61.75Y-84.0
X105.5Y-71.71
X108.04Y-71.71
T7
X66.75Y-100.5
X66.75Y-102.5
X66.87Y-92.62
X66.87Y-110.4
X69.41Y-92.62
X69.41Y-110.4
X71.95Y-92.62
X71.95Y-110.4
X74.49Y-92.62
X74.49Y-110.4
X77.03Y-92.62
X77.03Y-110.4
X79.57Y-92.62
X79.57Y-110.4
X82.11Y-92.62
X82.11Y-110.4
X84.65Y-92.62
X84.65Y-110.4
X87.19Y-92.62
X87.19Y-110.4
X89.73Y-92.62
X89.73Y-110.4
X92.27Y-92.62
X92.27Y-110.4
X94.81Y-92.62
X94.81Y-110.4
X97.35Y-92.62
X97.35Y-110.4
X99.89Y-92.62
X99.89Y-110.4
X102.43Y-92.62
X102.43Y-110.4
X104.97Y-92.62
X104.97Y-110.4
X107.51Y-92.62
X107.51Y-110.4
X110.05Y-92.62
X110.05Y-110.4
X112.59Y-92.62
X112.59Y-110.4
X114.9Y-98.97
X114.9Y-101.51
X114.9Y-104.05
X115.13Y-92.62
X115.13Y-110.4
T8
X185.8Y-110.0
X185.8Y-121.5
X185.8Y-128.5
X190.5Y-110.0
X122.8Y-110.0
X122.8Y-121.5
X122.8Y-128.5
X127.5Y-110.0
X149.8Y-110.0
X149.8Y-121.5
X149.8Y-128.5
X154.5Y-110.0
X140.8Y-110.0
X140.8Y-121.5
X140.8Y-128.5
X145.5Y-110.0
X158.8Y-110.0
X158.8Y-121.5
X158.8Y-128.5
X163.5Y-110.0
X131.8Y-110.0
X131.8Y-121.5
X131.8Y-128.5
X136.5Y-110.0
X167.8Y-110.0
X167.8Y-121.5
X167.8Y-128.5
X172.5Y-110.0
X176.8Y-110.0
X176.8Y-121.5
X176.8Y-128.5
X181.5Y-110.0
T9
X77.0Y-61.0
X80.81Y-61.0
X84.62Y-61.0
X88.43Y-61.0
X92.24Y-61.0
X96.05Y-61.0
X99.86Y-61.0
X103.67Y-61.0
X107.48Y-61.0
X111.29Y-61.0
X143.0Y-61.0
X146.81Y-61.0
X150.62Y-61.0
X154.43Y-61.0
X158.24Y-61.0
X162.05Y-61.0
X165.86Y-61.0
X169.67Y-61.0
X173.48Y-61.0
X177.29Y-61.0
X83.0Y-139.0
X86.81Y-139.0
X90.62Y-139.0
X143.0Y-139.0
X146.81Y-139.0
X150.62Y-139.0
X154.43Y-139.0
X158.24Y-139.0
X162.05Y-139.0
X165.86Y-139.0
X169.67Y-139.0
X173.48Y-139.0
X177.29Y-139.0
T10
X124.0Y-60.0
X124.0Y-140.0
X190.0Y-140.0
X60.0Y-140.0
X190.0Y-60.0
X60.0Y-60.0
T3
G00X59.92Y-97.925
M15
G01X60.92Y-97.925
M16
G05
G00X59.92Y-105.075
M15
G01X60.92Y-105.075
M16
G05
T0
M30
