%TF.GenerationSoftware,KiCad,Pcbnew,(5.99.0-7040-g8c08b861ab)*%
%TF.CreationDate,2021-03-18T10:44:17+08:00*%
%TF.ProjectId,PicoIndustrial,5069636f-496e-4647-9573-747269616c2e,rev?*%
%TF.SameCoordinates,Original*%
%TF.FileFunction,Soldermask,Bot*%
%TF.FilePolarity,Negative*%
%FSLAX46Y46*%
G04 Gerber Fmt 4.6, Leading zero omitted, Abs format (unit mm)*
G04 Created by KiCad (PCBNEW (5.99.0-7040-g8c08b861ab)) date 2021-03-18 10:44:17*
%MOMM*%
%LPD*%
G01*
G04 APERTURE LIST*
%ADD10C,1.400000*%
%ADD11C,1.650000*%
%ADD12R,2.100000X2.100000*%
%ADD13C,2.100000*%
%ADD14R,0.840000X0.840000*%
%ADD15C,0.840000*%
%ADD16O,1.850000X0.850000*%
%ADD17C,6.400000*%
%ADD18C,0.800000*%
%ADD19O,1.700000X1.700000*%
%ADD20R,1.700000X1.700000*%
G04 APERTURE END LIST*
D10*
%TO.C,JP5-2*%
X61790000Y-86500000D03*
X59250000Y-86500000D03*
%TD*%
D11*
%TO.C,K5*%
X154500000Y-110000000D03*
X149800000Y-110000000D03*
X149800000Y-121500000D03*
X149800000Y-128500000D03*
%TD*%
D10*
%TO.C,JP2-1*%
X70750000Y-71710000D03*
X73290000Y-71710000D03*
%TD*%
%TO.C,JP3-2*%
X84750000Y-74210000D03*
X87290000Y-74210000D03*
%TD*%
D12*
%TO.C,J2*%
X143000000Y-139000000D03*
D13*
X146810000Y-139000000D03*
X150620000Y-139000000D03*
X154430000Y-139000000D03*
X158240000Y-139000000D03*
X162050000Y-139000000D03*
X165860000Y-139000000D03*
X169670000Y-139000000D03*
X173480000Y-139000000D03*
X177290000Y-139000000D03*
%TD*%
D14*
%TO.C,J6*%
X60200000Y-102800000D03*
D15*
X61200000Y-102150000D03*
X60200000Y-101500000D03*
X61200000Y-100850000D03*
X60200000Y-100200000D03*
D16*
X60420000Y-97925000D03*
X60420000Y-105075000D03*
%TD*%
D10*
%TO.C,JP4-2*%
X105500000Y-74210000D03*
X108040000Y-74210000D03*
%TD*%
D11*
%TO.C,K4*%
X163500000Y-110000000D03*
X158800000Y-110000000D03*
X158800000Y-121500000D03*
X158800000Y-128500000D03*
%TD*%
%TO.C,K1*%
X190500000Y-110000000D03*
X185800000Y-110000000D03*
X185800000Y-121500000D03*
X185800000Y-128500000D03*
%TD*%
D10*
%TO.C,JP5-1*%
X61750000Y-84000000D03*
X59210000Y-84000000D03*
%TD*%
D12*
%TO.C,J4*%
X111290000Y-61000000D03*
D13*
X107480000Y-61000000D03*
X103670000Y-61000000D03*
X99860000Y-61000000D03*
X96050000Y-61000000D03*
X92240000Y-61000000D03*
X88430000Y-61000000D03*
X84620000Y-61000000D03*
X80810000Y-61000000D03*
X77000000Y-61000000D03*
%TD*%
D17*
%TO.C,H6*%
X190000000Y-140000000D03*
D18*
X192400000Y-140000000D03*
X187600000Y-140000000D03*
X191697056Y-138302944D03*
X190000000Y-137600000D03*
X188302944Y-141697056D03*
X191697056Y-141697056D03*
X188302944Y-138302944D03*
X190000000Y-142400000D03*
%TD*%
D19*
%TO.C,J1*%
X66870000Y-110400000D03*
X69410000Y-110400000D03*
D20*
X71950000Y-110400000D03*
D19*
X74490000Y-110400000D03*
X77030000Y-110400000D03*
X79570000Y-110400000D03*
X82110000Y-110400000D03*
D20*
X84650000Y-110400000D03*
D19*
X87190000Y-110400000D03*
X89730000Y-110400000D03*
X92270000Y-110400000D03*
X94810000Y-110400000D03*
D20*
X97350000Y-110400000D03*
D19*
X99890000Y-110400000D03*
X102430000Y-110400000D03*
X104970000Y-110400000D03*
X107510000Y-110400000D03*
D20*
X110050000Y-110400000D03*
D19*
X112590000Y-110400000D03*
X115130000Y-110400000D03*
X115130000Y-92620000D03*
X112590000Y-92620000D03*
D20*
X110050000Y-92620000D03*
D19*
X107510000Y-92620000D03*
X104970000Y-92620000D03*
X102430000Y-92620000D03*
X99890000Y-92620000D03*
D20*
X97350000Y-92620000D03*
D19*
X94810000Y-92620000D03*
X92270000Y-92620000D03*
X89730000Y-92620000D03*
X87190000Y-92620000D03*
D20*
X84650000Y-92620000D03*
D19*
X82110000Y-92620000D03*
X79570000Y-92620000D03*
X77030000Y-92620000D03*
X74490000Y-92620000D03*
D20*
X71950000Y-92620000D03*
D19*
X69410000Y-92620000D03*
X66870000Y-92620000D03*
X114900000Y-104050000D03*
D20*
X114900000Y-101510000D03*
D19*
X114900000Y-98970000D03*
X66750000Y-100500000D03*
X66750000Y-102500000D03*
%TD*%
D11*
%TO.C,K8*%
X127500000Y-110000000D03*
X122800000Y-110000000D03*
X122800000Y-121500000D03*
X122800000Y-128500000D03*
%TD*%
%TO.C,K7*%
X136500000Y-110000000D03*
X131800000Y-110000000D03*
X131800000Y-121500000D03*
X131800000Y-128500000D03*
%TD*%
D18*
%TO.C,H5*%
X126400000Y-140000000D03*
X125697056Y-141697056D03*
D17*
X124000000Y-140000000D03*
D18*
X124000000Y-142400000D03*
X125697056Y-138302944D03*
X121600000Y-140000000D03*
X122302944Y-141697056D03*
X124000000Y-137600000D03*
X122302944Y-138302944D03*
%TD*%
D12*
%TO.C,J3*%
X177290000Y-61000000D03*
D13*
X173480000Y-61000000D03*
X169670000Y-61000000D03*
X165860000Y-61000000D03*
X162050000Y-61000000D03*
X158240000Y-61000000D03*
X154430000Y-61000000D03*
X150620000Y-61000000D03*
X146810000Y-61000000D03*
X143000000Y-61000000D03*
%TD*%
D10*
%TO.C,JP4-1*%
X105500000Y-71710000D03*
X108040000Y-71710000D03*
%TD*%
D18*
%TO.C,H3*%
X188302944Y-58302944D03*
X190000000Y-57600000D03*
X192400000Y-60000000D03*
X191697056Y-61697056D03*
D17*
X190000000Y-60000000D03*
D18*
X191697056Y-58302944D03*
X190000000Y-62400000D03*
X187600000Y-60000000D03*
X188302944Y-61697056D03*
%TD*%
D17*
%TO.C,H4*%
X60000000Y-140000000D03*
D18*
X60000000Y-137600000D03*
X61697056Y-138302944D03*
X60000000Y-142400000D03*
X58302944Y-138302944D03*
X61697056Y-141697056D03*
X62400000Y-140000000D03*
X58302944Y-141697056D03*
X57600000Y-140000000D03*
%TD*%
D11*
%TO.C,K3*%
X172500000Y-110000000D03*
X167800000Y-110000000D03*
X167800000Y-121500000D03*
X167800000Y-128500000D03*
%TD*%
%TO.C,K2*%
X181500000Y-110000000D03*
X176800000Y-110000000D03*
X176800000Y-121500000D03*
X176800000Y-128500000D03*
%TD*%
D12*
%TO.C,J5*%
X83000000Y-139000000D03*
D13*
X86810000Y-139000000D03*
X90620000Y-139000000D03*
%TD*%
D18*
%TO.C,H1*%
X60000000Y-57600000D03*
X57600000Y-60000000D03*
X58302944Y-58302944D03*
X60000000Y-62400000D03*
X58302944Y-61697056D03*
D17*
X60000000Y-60000000D03*
D18*
X62400000Y-60000000D03*
X61697056Y-61697056D03*
X61697056Y-58302944D03*
%TD*%
%TO.C,H2*%
X122302944Y-61697056D03*
X125697056Y-58302944D03*
X124000000Y-57600000D03*
X124000000Y-62400000D03*
D17*
X124000000Y-60000000D03*
D18*
X125697056Y-61697056D03*
X126400000Y-60000000D03*
X122302944Y-58302944D03*
X121600000Y-60000000D03*
%TD*%
D10*
%TO.C,JP3-1*%
X84750000Y-71710000D03*
X87290000Y-71710000D03*
%TD*%
D11*
%TO.C,K6*%
X145500000Y-110000000D03*
X140800000Y-110000000D03*
X140800000Y-121500000D03*
X140800000Y-128500000D03*
%TD*%
D10*
%TO.C,JP1-2*%
X59250000Y-74210000D03*
X61790000Y-74210000D03*
%TD*%
%TO.C,JP1-1*%
X59250000Y-71710000D03*
X61790000Y-71710000D03*
%TD*%
%TO.C,JP2-2*%
X70750000Y-74210000D03*
X73290000Y-74210000D03*
%TD*%
M02*
